<?xml version="1.0" encoding="utf-8"?>
<!-- Generator: Adobe Illustrator 24.1.0, SVG Export Plug-In . SVG Version: 6.00 Build 0)  -->
<svg version="1.1" id="Layer_1" xmlns="http://www.w3.org/2000/svg" xmlns:xlink="http://www.w3.org/1999/xlink" x="0px" y="0px"
	 viewBox="0 0 253.49 239.53" style="enable-background:new 0 0 253.49 239.53;" xml:space="preserve">
<style type="text/css">
	.st0{fill:#1D69B0;}
	.st1{fill:#818285;}
	.st2{fill:#818285;stroke:#818285;stroke-miterlimit:10;}
</style>
<g>
	<g>
		<g>
			<path class="st1" d="M159.29,138.95c-2.04,0-3.7,1.66-3.7,3.7v25.53c0,10.2-8.3,18.5-18.5,18.5H97.13c-2.04,0-3.7,1.66-3.7,3.7
				l-0.01,7.36l-8.83-8.83c-0.57-1.31-1.88-2.22-3.39-2.22H57.16c-10.2,0-18.5-8.3-18.5-18.5v-56.99c0-10.2,8.3-18.5,18.5-18.5
				h37.37c2.04,0,3.7-1.66,3.7-3.7c0-2.04-1.66-3.7-3.7-3.7H57.16c-14.28,0-25.9,11.62-25.9,25.9v56.99
				c0,14.28,11.62,25.9,25.9,25.9h22.15l15.2,15.2c0.71,0.71,1.65,1.08,2.62,1.08c0.48,0,0.96-0.09,1.41-0.28
				c1.38-0.57,2.28-1.92,2.29-3.42l0.01-12.58h36.25c14.28,0,25.9-11.62,25.9-25.9v-25.53C162.99,140.6,161.33,138.95,159.29,138.95
				z"/>
		</g>
	</g>
	<g>
		<g>
			<path class="st1" d="M166.93,20.9h-9.37c-29.66,0-53.78,24.13-53.78,53.78s24.13,53.78,53.78,53.78h9.37
				c4.63,0,9.21-0.59,13.65-1.75l13.83,13.83c0.71,0.71,1.65,1.08,2.62,1.08c0.48,0,0.96-0.09,1.42-0.28
				c1.38-0.57,2.28-1.92,2.28-3.42v-21.41c5.86-4.74,10.72-10.74,14.14-17.43c3.88-7.6,5.84-15.81,5.84-24.4
				C220.72,45.03,196.59,20.9,166.93,20.9z M194.81,111.76c-0.93,0.7-1.47,1.79-1.47,2.96V129l-9.06-9.05
				c-0.7-0.7-1.65-1.08-2.62-1.08c-0.36,0-0.73,0.05-1.09,0.16c-4.4,1.35-8.99,2.04-13.64,2.04h-9.37
				c-25.58,0-46.38-20.81-46.38-46.38s20.81-46.38,46.38-46.38h9.37c25.58,0,46.38,20.81,46.38,46.38
				C213.31,89.39,206.57,102.9,194.81,111.76z"/>
		</g>
	</g>
	<g>
		<g>
			<path class="st1" d="M178.91,61.39c-0.53-7.75-6.78-13.99-14.53-14.53c-4.39-0.3-8.58,1.18-11.79,4.17
				c-3.16,2.95-4.98,7.13-4.98,11.45c0,2.04,1.66,3.7,3.7,3.7c2.04,0,3.7-1.66,3.7-3.7c0-2.32,0.93-4.46,2.63-6.04
				c1.69-1.58,3.9-2.36,6.23-2.2c4.08,0.28,7.37,3.57,7.65,7.65c0.28,4.12-2.42,7.76-6.43,8.66c-3.25,0.73-5.52,3.55-5.52,6.86v8.89
				c0,2.04,1.66,3.7,3.7,3.7c2.04,0,3.7-1.66,3.7-3.7v-8.59C174.44,75.92,179.44,69.1,178.91,61.39z"/>
		</g>
	</g>
	<g>
		<g>
			<path class="st1" d="M165.9,96.07c-0.69-0.69-1.64-1.08-2.62-1.08s-1.93,0.4-2.62,1.08c-0.69,0.69-1.08,1.64-1.08,2.62
				c0,0.98,0.4,1.93,1.08,2.62c0.69,0.69,1.64,1.08,2.62,1.08s1.93-0.39,2.62-1.08c0.69-0.69,1.08-1.64,1.08-2.62
				C166.99,97.71,166.59,96.75,165.9,96.07z"/>
		</g>
	</g>
	<g>
		<g>
			<path class="st1" d="M133.02,135.61H54.94c-2.04,0-3.7,1.66-3.7,3.7c0,2.04,1.66,3.7,3.7,3.7h78.08c2.04,0,3.7-1.66,3.7-3.7
				C136.72,137.27,135.06,135.61,133.02,135.61z"/>
		</g>
	</g>
	<g>
		<g>
			<path class="st1" d="M135.63,157.42c-0.69-0.69-1.64-1.08-2.62-1.08c-0.97,0-1.93,0.4-2.62,1.08c-0.69,0.69-1.08,1.64-1.08,2.62
				c0,0.97,0.4,1.93,1.08,2.62s1.64,1.08,2.62,1.08c0.97,0,1.93-0.4,2.62-1.08c0.69-0.69,1.08-1.64,1.08-2.62
				C136.72,159.06,136.32,158.11,135.63,157.42z"/>
		</g>
	</g>
	<g>
		<g>
			<path class="st1" d="M118.46,156.34H54.94c-2.04,0-3.7,1.66-3.7,3.7c0,2.04,1.66,3.7,3.7,3.7h63.52c2.04,0,3.7-1.66,3.7-3.7
				C122.16,157.99,120.5,156.34,118.46,156.34z"/>
		</g>
	</g>
	<g>
		<g>
			<path class="st1" d="M108.96,114.89H54.94c-2.04,0-3.7,1.66-3.7,3.7c0,2.04,1.66,3.7,3.7,3.7h54.03c2.04,0,3.7-1.66,3.7-3.7
				C112.66,116.55,111.01,114.89,108.96,114.89z"/>
		</g>
	</g>
</g>
</svg>
