<?xml version="1.0" encoding="utf-8"?>
<!-- Generator: Adobe Illustrator 24.1.0, SVG Export Plug-In . SVG Version: 6.00 Build 0)  -->
<svg version="1.1" id="Layer_1" xmlns="http://www.w3.org/2000/svg" xmlns:xlink="http://www.w3.org/1999/xlink" x="0px" y="0px"
	 viewBox="0 0 253.49 239.53" style="enable-background:new 0 0 253.49 239.53;" xml:space="preserve">
<style type="text/css">
	.st0{fill:#1D69B0;}
	.st1{fill:#818285;}
	.st2{fill:#818285;stroke:#818285;stroke-miterlimit:10;}
</style>
<g>
	<path class="st0" d="M146.25,72.59c0-13.01-10.55-23.56-23.56-23.56c-13.01,0-23.56,10.55-23.56,23.56
		c0,13.01,10.55,23.56,23.56,23.56C135.7,96.14,146.24,85.6,146.25,72.59z M104.72,72.59c0-9.93,8.05-17.98,17.98-17.98
		c9.93,0,17.98,8.05,17.98,17.98c0,9.93-8.05,17.98-17.98,17.98C112.77,90.56,104.73,82.52,104.72,72.59z"/>
	<path class="st0" d="M217.28,206.59l-22.74-59.63c-0.41-1.08-1.45-1.79-2.61-1.8h-43.05c0.26-0.43,0.52-0.84,0.79-1.28
		c16.56-27.42,24.9-51.41,24.78-71.29c0-28.59-23.17-51.76-51.75-51.76c-28.58,0-51.76,23.16-51.76,51.75
		c-0.12,19.9,8.22,43.89,24.78,71.31c0.26,0.44,0.52,0.85,0.79,1.28H53.46c-1.16,0-2.19,0.71-2.61,1.8l-22.74,59.63
		c-0.55,1.44,0.17,3.05,1.6,3.6c0.32,0.12,0.66,0.19,1,0.18h183.96c1.54,0,2.79-1.24,2.79-2.78
		C217.47,207.25,217.41,206.91,217.28,206.59L217.28,206.59z M76.52,72.59c0-25.5,20.68-46.17,46.19-46.17
		c25.5,0,46.17,20.68,46.17,46.19l0,0c0.24,39.63-36.81,88.51-46.18,100.23C113.33,161.12,76.28,112.26,76.52,72.59L76.52,72.59z
		 M120.57,179.06c1,1.17,2.76,1.32,3.93,0.32c0.11-0.1,0.22-0.2,0.32-0.32c7.41-9.02,14.28-18.48,20.57-28.31h44.62l3.57,9.37
		l-87.2,31.01L75.3,150.74H100C106.29,160.58,113.16,170.03,120.57,179.06L120.57,179.06z M106.29,197.07h0.02l52.02-18.49
		l20.18,26.22H84.59L106.29,197.07z M55.38,150.74h12.88l32.59,42.35l-32.91,11.71H34.76L55.38,150.74z M185.54,204.79l-21.7-28.19
		l31.73-11.28l15.06,39.47H185.54z"/>
</g>
</svg>
