<?xml version="1.0" encoding="utf-8"?>
<!-- Generator: Adobe Illustrator 24.1.0, SVG Export Plug-In . SVG Version: 6.00 Build 0)  -->
<svg version="1.1" id="Layer_1" xmlns="http://www.w3.org/2000/svg" xmlns:xlink="http://www.w3.org/1999/xlink" x="0px" y="0px"
	 viewBox="0 0 253.49 239.53" style="enable-background:new 0 0 253.49 239.53;" xml:space="preserve">
<style type="text/css">
	.st0{fill:#1D69B0;}
	.st1{fill:#818285;}
	.st2{fill:#818285;stroke:#818285;stroke-miterlimit:10;}
</style>
<g>
	<g>
		<path class="st0" d="M200.88,103.62c3.8-5.82,3.1-13.38-1.71-18.4c-2.12-2.21-3-5.32-2.37-8.31c1.44-6.8-1.95-13.6-8.24-16.54
			c-2.77-1.3-4.72-3.88-5.21-6.9c-1.11-6.86-6.73-11.98-13.66-12.45c-3.05-0.21-5.8-1.91-7.35-4.55c-3.51-5.99-10.6-8.74-17.23-6.68
			c-2.92,0.91-6.1,0.31-8.5-1.59c-5.44-4.32-13.04-4.32-18.48,0c-2.4,1.9-5.57,2.5-8.5,1.59c-6.63-2.06-13.72,0.69-17.23,6.68
			c-1.55,2.64-4.3,4.34-7.35,4.55c-6.93,0.48-12.55,5.6-13.66,12.45c-0.49,3.02-2.44,5.6-5.21,6.9c-6.29,2.95-9.68,9.75-8.24,16.54
			c0.63,2.99-0.25,6.1-2.37,8.32c-4.8,5.02-5.5,12.59-1.71,18.4c1.67,2.56,1.97,5.78,0.8,8.61c-2.66,6.41-0.58,13.72,5.06,17.78
			c2.49,1.79,3.93,4.68,3.85,7.74c-0.17,6.94,4.41,13.01,11.14,14.75c1.98,0.51,3.71,1.66,4.94,3.23L64.2,193.06
			c-2.17,5.23,2.74,10.62,8.15,8.96l16.93-5.2c0.49-0.15,1.03,0.07,1.27,0.53l8.3,15.64c2.65,5,9.93,4.65,12.1-0.57l16.12-38.91
			c0.21-0.01,0.42-0.01,0.63,0l16.12,38.91c2.17,5.23,9.44,5.57,12.1,0.57l8.3-15.65c0.24-0.46,0.78-0.68,1.27-0.53l16.93,5.2
			c5.41,1.66,10.31-3.73,8.15-8.96l-15.46-37.33c1.24-1.57,2.96-2.71,4.94-3.23c6.72-1.74,11.3-7.81,11.14-14.75
			c-0.07-3.06,1.37-5.95,3.85-7.74c5.64-4.05,7.72-11.36,5.06-17.78C198.91,109.41,199.21,106.19,200.88,103.62L200.88,103.62z
			 M105.76,210.27c-0.35,0.85-1.52,0.9-1.95,0.09l-8.3-15.64c-1.5-2.83-4.81-4.2-7.88-3.26l-16.93,5.2
			c-0.88,0.27-1.67-0.6-1.31-1.45l13.72-33.12c3.1,4.24,8.27,6.6,13.72,5.97c3.04-0.35,6.05,0.81,8.06,3.12
			c2.91,3.35,7.02,5.13,11.2,5.13c1.32,0,2.66-0.19,3.96-0.55L105.76,210.27z M184.05,196.65l-16.93-5.2
			c-3.06-0.94-6.37,0.43-7.88,3.26l-8.3,15.64c-0.43,0.81-1.6,0.76-1.95-0.09l-14.29-34.51c5.43,1.51,11.33-0.18,15.16-4.59
			c2.01-2.31,5.02-3.48,8.06-3.12c5.45,0.64,10.62-1.73,13.72-5.97l13.72,33.12C185.72,196.06,184.93,196.92,184.05,196.65
			L184.05,196.65z M196.18,100.56c-2.69,4.12-3.17,9.29-1.28,13.83c1.66,3.99,0.36,8.54-3.15,11.07c-3.99,2.87-6.31,7.52-6.19,12.43
			c0.1,4.32-2.75,8.1-6.93,9.18c-3.92,1.01-7.2,3.56-9.17,7.01c-0.01,0.01-0.01,0.02-0.02,0.03c-0.42,0.73-0.78,1.51-1.07,2.32
			c-1.47,4.07-5.49,6.56-9.78,6.06c-4.88-0.57-9.72,1.3-12.95,5.02c-2.84,3.26-7.49,4.13-11.31,2.11c-1.3-0.69-2.68-1.16-4.08-1.44
			c-0.01,0-0.02-0.01-0.03-0.01c-1.87-0.36-3.79-0.36-5.66,0c-0.01,0-0.01,0-0.02,0c-1.41,0.28-2.79,0.75-4.09,1.44
			c-3.82,2.02-8.47,1.15-11.31-2.11c-2.84-3.27-6.94-5.12-11.22-5.12c-0.57,0-1.15,0.03-1.73,0.1c-4.29,0.5-8.32-1.99-9.78-6.06
			c-0.29-0.81-0.65-1.58-1.07-2.32c-0.01-0.01-0.01-0.02-0.02-0.04c-1.97-3.44-5.26-5.99-9.17-7.01c-4.19-1.08-7.04-4.86-6.93-9.18
			c0.12-4.92-2.2-9.56-6.19-12.43c-3.51-2.52-4.81-7.07-3.15-11.07c1.89-4.54,1.41-9.71-1.28-13.83c-2.36-3.62-1.93-8.33,1.06-11.46
			c3.4-3.55,4.82-8.55,3.8-13.36c-0.9-4.23,1.21-8.47,5.13-10.3c4.45-2.09,7.58-6.23,8.37-11.08c0.69-4.27,4.19-7.46,8.5-7.75
			c4.91-0.34,9.32-3.07,11.81-7.31c2.19-3.73,6.6-5.44,10.73-4.16c4.7,1.46,9.8,0.5,13.65-2.55c3.39-2.69,8.12-2.69,11.51,0
			c3.85,3.06,8.95,4.01,13.65,2.55c4.13-1.28,8.54,0.43,10.73,4.16c2.49,4.24,6.9,6.97,11.81,7.31c4.31,0.3,7.81,3.48,8.5,7.75
			c0.79,4.85,3.92,9,8.37,11.08c3.92,1.83,6.02,6.07,5.13,10.3c-1.02,4.81,0.4,9.8,3.8,13.36
			C198.11,92.22,198.54,96.94,196.18,100.56L196.18,100.56z"/>
		<path class="st0" d="M74.22,96.85c1.54,0.19,2.94-0.9,3.13-2.44c3.1-25.19,24.61-44.18,50.03-44.18
			c25.43,0,46.94,19.01,50.03,44.21c0.17,1.42,1.38,2.47,2.78,2.47c0.11,0,0.23-0.01,0.35-0.02c1.54-0.19,2.63-1.59,2.44-3.13
			c-3.43-28.01-27.34-49.14-55.6-49.14c-28.25,0-52.15,21.11-55.6,49.11C71.59,95.26,72.68,96.66,74.22,96.85L74.22,96.85z"/>
		<path class="st0" d="M180.54,104.39c-1.53-0.19-2.94,0.91-3.13,2.44c-3.09,25.2-24.6,44.21-50.03,44.21
			c-25.42,0-46.93-19-50.03-44.19c-0.19-1.54-1.59-2.63-3.13-2.44c-1.54,0.19-2.63,1.59-2.44,3.13c3.44,28,27.35,49.12,55.6,49.12
			c28.27,0,52.17-21.13,55.6-49.14C183.17,105.97,182.07,104.57,180.54,104.39z"/>
	</g>
</g>
</svg>
