<?xml version="1.0" encoding="utf-8"?>
<!-- Generator: Adobe Illustrator 24.1.0, SVG Export Plug-In . SVG Version: 6.00 Build 0)  -->
<svg version="1.1" id="Layer_1" xmlns="http://www.w3.org/2000/svg" xmlns:xlink="http://www.w3.org/1999/xlink" x="0px" y="0px"
	 viewBox="0 0 253.49 239.53" style="enable-background:new 0 0 253.49 239.53;" xml:space="preserve">
<style type="text/css">
	.st0{fill:#1D69B0;}
	.st1{fill:#818285;}
	.st2{fill:#818285;stroke:#818285;stroke-miterlimit:10;}
</style>
<g>
	<path class="st1" d="M75.63,124.18h8.72v8.72h8.72v8.72H49.5v-8.72h8.72v-17.44h17.44v8.72L75.63,124.18z M188.93,202.6h8.7v-8.72
		h-8.7V202.6z M84.35,124.18h8.72v-8.72h-8.72V124.18z M206.33,202.6h8.72v-8.72h-8.72V202.6z M101.79,211.31h17.42v-8.72h-17.42
		V211.31z M180.2,211.31v-8.72h-8.72v8.72H180.2z M145.35,211.31h8.72v-17.43h-8.72V211.31z M75.63,98.04v8.72h26.14v-8.72H75.63z
		 M66.93,106.75v-8.72H49.49v17.43h8.72v-8.72L66.93,106.75z M93.06,89.32h-61V28.33h61V89.32z M84.35,37.04H40.77v43.56h43.58
		V37.04z M49.49,193.89h26.14v-26.14H49.49V193.89z M136.63,185.16v8.72h8.73v-8.72H136.63z M75.63,45.76H49.5v26.13h26.14V45.76z
		 M215.05,28.33v61h-61v-61H215.05z M206.33,37.04h-43.56v43.56h43.56C206.33,80.61,206.33,37.04,206.33,37.04z M32.06,150.3h61v61
		h-61V150.3z M40.78,202.6h43.58v-43.58H40.78V202.6z M40.78,98.04h-8.72v43.58h8.72V98.04z M154.05,141.6v8.7h8.72v-8.7H154.05z
		 M127.91,176.46v-8.72h-8.71v8.72h-17.42v17.44h17.42v8.72h8.71v-17.44h8.72v-8.72L127.91,176.46L127.91,176.46z M101.79,63.18
		h17.42v-8.73h-17.42V63.18z M171.49,132.9h17.44v8.72h8.71v-26.14h-8.71V98.04h-8.73v26.14h-26.12v8.72h8.72v8.72h8.72v-8.72
		L171.49,132.9L171.49,132.9z M180.2,159.03h-8.72v-8.72h-8.72v17.44h-26.14v8.72h17.44v17.44h8.72v8.72h8.72v-17.44h34.85v-8.72
		h-26.14v-17.44H180.2z M180.2,159.03h8.73V141.6h-8.73V159.03z M110.49,159.03v-8.72h8.7v-8.7h8.71v-8.72h8.72v-17.44h26.14V98.01
		h-8.72v8.72h-8.72V71.87h-8.72V54.43h8.72V28.32h-8.72v17.43h-8.72V28.32h-26.14v17.43h8.72v-8.72h8.7v17.42h8.72V80.6h8.72v8.72
		h-8.72v17.43h-8.72V89.32h-8.7v-8.71h-8.72v17.43h8.72v8.72h-8.72v26.15h8.72v-17.44h8.7v17.44h-8.7v8.72h-8.72v26.12h17.42v-8.72
		H110.49z M206.33,167.74v-8.72h-17.42v8.72H206.33z M197.62,45.76h-26.13v26.13h26.13V45.76z M127.91,159.03h17.44v-8.72h-8.73
		v-8.7h-8.72L127.91,159.03L127.91,159.03z M145.35,141.6v-8.72h-8.73v8.72H145.35z M197.62,106.75h17.44v-8.72h-17.44V106.75z
		 M206.33,176.46h8.72v-8.72h-8.72V176.46z M206.33,124.18h8.72v-8.72h-8.72V124.18z M127.91,80.61h-8.71v8.72h8.71V80.61z"/>
</g>
</svg>
