<?xml version="1.0" encoding="utf-8"?>
<!-- Generator: Adobe Illustrator 24.1.0, SVG Export Plug-In . SVG Version: 6.00 Build 0)  -->
<svg version="1.1" id="Layer_1" xmlns="http://www.w3.org/2000/svg" xmlns:xlink="http://www.w3.org/1999/xlink" x="0px" y="0px"
	 viewBox="0 0 253.49 239.53" style="enable-background:new 0 0 253.49 239.53;" xml:space="preserve">
<style type="text/css">
	.st0{fill:#1D69B0;}
	.st1{fill:#818285;}
	.st2{fill:#818285;stroke:#818285;stroke-miterlimit:10;}
</style>
<g id="_09-rating_1_">
	<g id="linear_color_1_">
		<path class="st1" d="M178.56,94.4c3.07,3.07,3.07,8.04,0.01,11.11c0,0-0.01,0.01-0.01,0.01c-1.87,1.82-1.9,4.82-0.08,6.68
			c1.82,1.87,4.82,1.9,6.68,0.08c0.03-0.02,0.05-0.05,0.07-0.07c6.76-6.75,6.77-17.71,0.02-24.48c-0.01-0.01-0.01-0.01-0.02-0.02
			c-1.83-1.87-4.82-1.9-6.68-0.07c-1.87,1.83-1.9,4.82-0.07,6.68C178.51,94.35,178.53,94.37,178.56,94.4L178.56,94.4z"/>
		<path class="st1" d="M198.61,74.36c-1.85-1.85-4.84-1.84-6.68,0c-1.85,1.85-1.84,4.84,0,6.68c10.45,10.43,10.46,27.35,0.03,37.8
			c-0.01,0.01-0.02,0.02-0.03,0.03c-1.85,1.84-1.86,4.83-0.02,6.68c1.84,1.85,4.83,1.86,6.68,0.02c0.01-0.01,0.01-0.01,0.02-0.02
			c14.14-14.12,14.16-37.03,0.04-51.17C198.63,74.38,198.62,74.37,198.61,74.36L198.61,74.36z"/>
		<path class="st1" d="M71.8,105.52c-3.07-3.07-3.07-8.04-0.01-11.11c0,0,0.01-0.01,0.01-0.01c1.89-1.8,1.96-4.79,0.17-6.68
			c-1.8-1.89-4.79-1.96-6.68-0.17c-0.06,0.05-0.11,0.11-0.16,0.16c-6.76,6.75-6.77,17.71-0.02,24.48c0.01,0.01,0.01,0.01,0.02,0.02
			c1.85,1.84,4.84,1.84,6.69-0.01C73.65,110.35,73.65,107.36,71.8,105.52z"/>
		<path class="st1" d="M58.43,74.36c-1.84-1.85-4.84-1.85-6.68,0c0,0,0,0,0,0c-14.14,14.12-14.16,37.03-0.04,51.17
			c0.01,0.01,0.02,0.02,0.04,0.04c1.85,1.85,4.84,1.84,6.68,0c1.85-1.85,1.84-4.84,0-6.68l0,0c-10.45-10.43-10.46-27.35-0.03-37.8
			c0.01-0.01,0.02-0.02,0.03-0.03C60.28,79.2,60.28,76.21,58.43,74.36z"/>
		<path class="st1" d="M178.75,139.55c-2.17,0-4.32,0.5-6.27,1.46c-3.51-6.93-11.94-9.74-18.91-6.3
			c-3.22-6.35-10.65-9.33-17.37-6.95v-14.23l18.5,9.73c2.31,1.21,5.17,0.33,6.38-1.99c0.48-0.92,0.65-1.97,0.47-3l-5.64-32.88
			l23.89-23.29c1.87-1.82,1.9-4.82,0.08-6.68c-0.72-0.74-1.67-1.23-2.7-1.38l-33.14-4.82l-14.73-26.95
			c-1.25-2.29-4.12-3.13-6.41-1.88c-0.79,0.43-1.45,1.09-1.88,1.88L106.3,49.22l-33.14,4.82c-2.58,0.38-4.37,2.77-4,5.36
			c0.15,1.03,0.63,1.98,1.38,2.7l23.89,23.29l-5.64,32.88c-0.77,3.72,3.56,6.86,6.86,4.98l12.2-6.42v52.43
			c-1.2-1.57-2.29-2.98-3.28-4.22c-7.09-8.92-15.81-9.75-21.88-8.88c-3.92,0.58-7.69,1.92-11.1,3.95c-2.21,1.42-2.84,4.37-1.42,6.58
			c0.07,0.11,0.14,0.21,0.22,0.31l38.45,49.5c1.6,2.06,4.57,2.43,6.63,0.83c2.06-1.6,2.43-4.57,0.83-6.63l0,0l-34.7-44.66
			c0.88-0.25,1.78-0.43,2.69-0.55c5.21-0.67,9.43,1.12,12.87,5.45c2.89,3.63,6.78,8.82,11.58,15.41c2.63,3.67,8.59,1.73,8.55-2.78
			v-77.11c0-2.61,2.12-4.73,4.73-4.73c2.61,0,4.73,2.12,4.73,4.73c0,0,0.01,50.74,0.02,50.9c0.27,2.6,2.59,4.49,5.18,4.22
			c2.23-0.23,3.99-1.99,4.22-4.22c0.02-0.16,0.02-16.24,0.02-16.24c0-2.61,2.12-4.73,4.73-4.73c2.61,0,4.73,2.12,4.73,4.73v18.91
			c0,2.61,2.12,4.73,4.73,4.73c2.61,0,4.73-2.12,4.73-4.73v-12.6c0-2.61,2.12-4.73,4.73-4.73c2.61,0,4.73,2.12,4.73,4.73v15.76
			c0,2.61,2.12,4.73,4.73,4.73c2.61,0,4.73-2.12,4.73-4.73v-9.45c0-2.61,2.12-4.73,4.73-4.73s4.73,2.12,4.73,4.73v59.87
			c0,2.61,2.12,4.73,4.73,4.73c2.61,0,4.73-2.12,4.73-4.73v-59.87C192.92,145.9,186.57,139.56,178.75,139.55z M122.03,92.28
			c-7.71,0.01-14,6.17-14.17,13.87l-8.13,4.27l4.44-25.89c0.26-1.53-0.25-3.1-1.36-4.18L83.99,62.01l26-3.78
			c1.47-0.21,2.75-1.11,3.47-2.41l11.72-21.44l11.72,21.44c0.71,1.3,2,2.2,3.47,2.41l26,3.78l-18.82,18.34
			c-1.11,1.09-1.62,2.65-1.36,4.18l4.44,25.89l-14.97-7.87C133.91,96.48,128.35,92.29,122.03,92.28z"/>
	</g>
</g>
</svg>
