<?xml version="1.0" encoding="utf-8"?>
<!-- Generator: Adobe Illustrator 24.1.0, SVG Export Plug-In . SVG Version: 6.00 Build 0)  -->
<svg version="1.1" id="Layer_1" xmlns="http://www.w3.org/2000/svg" xmlns:xlink="http://www.w3.org/1999/xlink" x="0px" y="0px"
	 viewBox="0 0 253.49 239.53" style="enable-background:new 0 0 253.49 239.53;" xml:space="preserve">
<style type="text/css">
	.st0{fill:#1D69B0;}
	.st1{fill:#818285;}
	.st2{fill:#818285;stroke:#818285;stroke-miterlimit:10;}
</style>
<g>
	<path class="st0" d="M190.98,210.99H56.29c-10.05,0-18.22-8.17-18.22-18.22V96.88c0-3.5,2.84-6.34,6.34-6.34s6.34,2.84,6.34,6.34
		v95.88c0,3.06,2.49,5.55,5.55,5.55h134.7c3.06,0,5.55-2.49,5.55-5.55V96.88c0-3.5,2.84-6.34,6.34-6.34s6.34,2.84,6.34,6.34v95.88
		C209.21,202.81,201.03,210.99,190.98,210.99z"/>
	<path class="st0" d="M218.71,119.07c-1.62,0-3.24-0.62-4.48-1.86L135.4,38.38c-6.49-6.49-17.04-6.49-23.53,0l-78.83,78.83
		c-2.48,2.48-6.49,2.48-8.96,0c-2.48-2.48-2.48-6.49,0-8.96l78.83-78.83c11.43-11.43,30.03-11.43,41.46,0l78.83,78.83
		c2.48,2.48,2.48,6.49,0,8.96C221.96,118.45,220.34,119.07,218.71,119.07L218.71,119.07z"/>
	<path class="st0" d="M148.99,210.99H98.28c-3.5,0-6.34-2.84-6.34-6.34v-56.26c0-10.92,8.89-19.81,19.81-19.81h23.77
		c10.92,0,19.81,8.89,19.81,19.81v56.26C155.33,208.15,152.49,210.99,148.99,210.99z M104.62,198.31h38.03v-49.92
		c0-3.93-3.2-7.13-7.13-7.13h-23.77c-3.93,0-7.13,3.2-7.13,7.13V198.31z"/>
</g>
</svg>
